<svg width="31" height="23" viewBox="0 0 31 23" fill="none" xmlns="http://www.w3.org/2000/svg">
  <path d="M4.70711 1.29289C4.31658 0.902369 3.68342 0.902369 3.29289 1.29289C2.90237 1.68342 2.90237 2.31658 3.29289 2.70711L13.5858 13L3.29289 23.2929C2.90237 23.6834 2.90237 24.3166 3.29289 24.7071C3.68342 25.0976 4.31658 25.0976 4.70711 24.7071L15 14.4142L25.2929 24.7071C25.6834 25.0976 26.3166 25.0976 26.7071 24.7071C27.0976 24.3166 27.0976 23.6834 26.7071 23.2929L16.4142 13L26.7071 2.70711C27.0976 2.31658 27.0976 1.68342 26.7071 1.29289C26.3166 0.902369 25.6834 0.902369 25.2929 1.29289L15 11.5858L4.70711 1.29289Z" fill="#DC2626"/>
</svg>